<svg width="16" height="18" viewBox="0 0 16 18" fill="none" xmlns="http://www.w3.org/2000/svg">
<path d="M15.2526 7.95398C15.1738 7.27377 14.8484 6.64265 14.3345 6.17294C13.8206 5.70324 13.1515 5.4254 12.446 5.38874V5.1888C12.4466 4.61987 12.3312 4.05651 12.1063 3.53093C11.8815 3.00535 11.5517 2.52794 11.1359 2.12626C10.7209 1.72335 10.2278 1.40387 9.68507 1.18607C9.1423 0.968276 8.5605 0.856485 7.97301 0.85715C6.7871 0.857571 5.64992 1.31414 4.81135 2.12655C3.97278 2.93896 3.50151 4.04075 3.50107 5.18967V5.39184C2.80495 5.43977 2.14802 5.72251 1.6447 6.19086C1.14137 6.6592 0.823478 7.2836 0.74599 7.95553L0 14.5392C0.00368492 15.4219 0.368802 16.2671 1.01524 16.8893C1.66168 17.5114 2.53674 17.8595 3.4479 17.8571H12.5523C13.4635 17.8595 14.3383 17.5114 14.9848 16.8893C15.6312 16.2671 15.9963 15.4219 16 14.5392L15.2526 7.95398ZM4.81435 5.19674C4.81424 4.7949 4.89577 4.39699 5.05442 4.02571C5.21307 3.65444 5.44579 3.31712 5.73904 3.03295C6.03229 2.74877 6.38029 2.52329 6.76348 2.36949C7.14667 2.21569 7.55744 2.13662 7.97222 2.13662C8.38708 2.13623 8.79786 2.21519 9.18115 2.369C9.56444 2.52282 9.91272 2.74837 10.2058 3.03285C10.4996 3.31671 10.7325 3.65399 10.8914 4.02532C11.0503 4.39666 11.132 4.79475 11.1317 5.19674V5.38235H4.81435V5.19674ZM5.43741 9.69744C5.33319 9.69754 5.22988 9.67774 5.13358 9.63915C5.03727 9.60056 4.94981 9.54391 4.87612 9.47251C4.80243 9.40112 4.74404 9.31639 4.70421 9.22309C4.66438 9.12979 4.64394 9.02979 4.64405 8.92883C4.64394 8.82786 4.66438 8.72787 4.70421 8.63457C4.74404 8.54127 4.80243 8.45644 4.87612 8.38505C4.94981 8.31366 5.03727 8.2571 5.13358 8.21851C5.22988 8.17992 5.33319 8.16011 5.43741 8.16022C5.54177 8.16001 5.64515 8.17969 5.74164 8.21822C5.83813 8.25674 5.92579 8.31328 5.9997 8.38466C6.07361 8.45605 6.13234 8.54082 6.17241 8.63418C6.21247 8.72755 6.23306 8.82772 6.23317 8.92883C6.23306 9.02994 6.21247 9.13002 6.17241 9.22338C6.13234 9.31674 6.07361 9.40152 5.9997 9.4729C5.92579 9.54428 5.83813 9.60082 5.74164 9.63934C5.64515 9.67787 5.54177 9.69765 5.43741 9.69744V9.69744ZM10.5644 9.69744C10.46 9.69765 10.3566 9.67787 10.2602 9.63934C10.1637 9.60082 10.076 9.54428 10.0021 9.4729C9.92819 9.40152 9.86946 9.31674 9.82939 9.22338C9.78933 9.13002 9.76873 9.02994 9.76863 8.92883C9.76873 8.82772 9.78933 8.72755 9.82939 8.63418C9.86946 8.54082 9.92819 8.45605 10.0021 8.38466C10.076 8.31328 10.1637 8.25674 10.2602 8.21822C10.3566 8.17969 10.46 8.16001 10.5644 8.16022C10.6686 8.16011 10.7717 8.17992 10.868 8.21851C10.9643 8.2571 11.052 8.31366 11.1257 8.38505C11.1994 8.45644 11.2578 8.54127 11.2976 8.63457C11.3374 8.72787 11.3579 8.82786 11.3578 8.92883C11.3579 9.02979 11.3374 9.12979 11.2976 9.22309C11.2578 9.31639 11.1994 9.40112 11.1257 9.47251C11.052 9.54391 10.9643 9.60056 10.868 9.63915C10.7717 9.67774 10.6686 9.69754 10.5644 9.69744V9.69744Z" fill="white"/>
</svg>
